<svg width="100" height="120" viewBox="0 0 100 120" fill="none" xmlns="http://www.w3.org/2000/svg">
<path d="M100 49.0909C100 87.2727 50 120 50 120C50 120 0 87.2727 0 49.0909C1.97602e-07 36.0712 5.26784 23.5847 14.6447 14.3784C24.0215 5.17206 36.7392 0 50 0C63.2608 0 75.9785 5.17206 85.3553 14.3784C94.7322 23.5847 100 36.0712 100 49.0909Z" fill="black"/>
<path d="M50 90C72.0914 90 90 72.0914 90 50C90 27.9086 72.0914 10 50 10C27.9086 10 10 27.9086 10 50C10 72.0914 27.9086 90 50 90Z" fill="white"/>
<path d="M35.8778 30H49.1417L56.4759 49.3498L59.5449 30H70L64.1222 67.1912H52.8349L43.9402 45.1886L40.5072 67.1912H30L35.8778 30Z" fill="black"/>
</svg>
